{
    "asset" : {
        "generator" : "Khronos glTF Blender I/O v1.7.33",
        "version" : "2.0"
    },
    "scene" : 0,
    "scenes" : [
        {
            "name" : "Scene",
            "nodes" : [
                0,
                1
            ]
        }
    ],
    "nodes" : [
        {
            "mesh" : 0,
            "name" : "Cube.001",
            "rotation" : [
                0,
                0.7071067690849304,
                0,
                0.7071068286895752
            ],
            "scale" : [
                0.22387772798538208,
                4.120672225952148,
                14.298895835876465
            ],
            "translation" : [
                -0.15922021865844727,
                2.101296901702881,
                -7.1439409255981445
            ]
        },
        {
            "mesh" : 1,
            "name" : "Cube.002_collider",
            "rotation" : [
                0,
                0.7071067690849304,
                0,
                0.7071068286895752
            ],
            "scale" : [
                0.22387772798538208,
                4.120672225952148,
                14.298895835876465
            ],
            "translation" : [
                -0.15922021865844727,
                2.101296901702881,
                -7.1439409255981445
            ]
        }
    ],
    "animations" : [
        {
            "channels" : [
                {
                    "sampler" : 0,
                    "target" : {
                        "node" : 0,
                        "path" : "translation"
                    }
                },
                {
                    "sampler" : 1,
                    "target" : {
                        "node" : 0,
                        "path" : "rotation"
                    }
                },
                {
                    "sampler" : 2,
                    "target" : {
                        "node" : 0,
                        "path" : "scale"
                    }
                }
            ],
            "name" : "CubeAction.001",
            "samplers" : [
                {
                    "input" : 7,
                    "interpolation" : "STEP",
                    "output" : 8
                },
                {
                    "input" : 7,
                    "interpolation" : "STEP",
                    "output" : 9
                },
                {
                    "input" : 7,
                    "interpolation" : "STEP",
                    "output" : 10
                }
            ]
        },
        {
            "channels" : [
                {
                    "sampler" : 0,
                    "target" : {
                        "node" : 1,
                        "path" : "translation"
                    }
                },
                {
                    "sampler" : 1,
                    "target" : {
                        "node" : 1,
                        "path" : "rotation"
                    }
                },
                {
                    "sampler" : 2,
                    "target" : {
                        "node" : 1,
                        "path" : "scale"
                    }
                }
            ],
            "name" : "CubeAction.004",
            "samplers" : [
                {
                    "input" : 7,
                    "interpolation" : "STEP",
                    "output" : 11
                },
                {
                    "input" : 7,
                    "interpolation" : "STEP",
                    "output" : 12
                },
                {
                    "input" : 7,
                    "interpolation" : "STEP",
                    "output" : 13
                }
            ]
        }
    ],
    "meshes" : [
        {
            "name" : "Cube.004",
            "primitives" : [
                {
                    "attributes" : {
                        "POSITION" : 0,
                        "NORMAL" : 1,
                        "TEXCOORD_0" : 2
                    },
                    "indices" : 3
                }
            ]
        },
        {
            "name" : "Cube.007",
            "primitives" : [
                {
                    "attributes" : {
                        "POSITION" : 4,
                        "NORMAL" : 5,
                        "TEXCOORD_0" : 6
                    },
                    "indices" : 3
                }
            ]
        }
    ],
    "accessors" : [
        {
            "bufferView" : 0,
            "componentType" : 5126,
            "count" : 227,
            "max" : [
                0.5,
                0.5,
                0.5018411874771118
            ],
            "min" : [
                -64.78193664550781,
                -0.5,
                -0.5034207105636597
            ],
            "type" : "VEC3"
        },
        {
            "bufferView" : 1,
            "componentType" : 5126,
            "count" : 227,
            "type" : "VEC3"
        },
        {
            "bufferView" : 2,
            "componentType" : 5126,
            "count" : 227,
            "type" : "VEC2"
        },
        {
            "bufferView" : 3,
            "componentType" : 5123,
            "count" : 480,
            "type" : "SCALAR"
        },
        {
            "bufferView" : 4,
            "componentType" : 5126,
            "count" : 227,
            "max" : [
                0.5,
                0.5,
                0.5018411874771118
            ],
            "min" : [
                -64.78193664550781,
                -0.5,
                -0.5034207105636597
            ],
            "type" : "VEC3"
        },
        {
            "bufferView" : 5,
            "componentType" : 5126,
            "count" : 227,
            "type" : "VEC3"
        },
        {
            "bufferView" : 6,
            "componentType" : 5126,
            "count" : 227,
            "type" : "VEC2"
        },
        {
            "bufferView" : 7,
            "componentType" : 5126,
            "count" : 1,
            "max" : [
                3.9583333333333335
            ],
            "min" : [
                3.9583333333333335
            ],
            "type" : "SCALAR"
        },
        {
            "bufferView" : 8,
            "componentType" : 5126,
            "count" : 1,
            "type" : "VEC3"
        },
        {
            "bufferView" : 9,
            "componentType" : 5126,
            "count" : 1,
            "type" : "VEC4"
        },
        {
            "bufferView" : 10,
            "componentType" : 5126,
            "count" : 1,
            "type" : "VEC3"
        },
        {
            "bufferView" : 11,
            "componentType" : 5126,
            "count" : 1,
            "type" : "VEC3"
        },
        {
            "bufferView" : 12,
            "componentType" : 5126,
            "count" : 1,
            "type" : "VEC4"
        },
        {
            "bufferView" : 13,
            "componentType" : 5126,
            "count" : 1,
            "type" : "VEC3"
        }
    ],
    "bufferViews" : [
        {
            "buffer" : 0,
            "byteLength" : 2724,
            "byteOffset" : 0
        },
        {
            "buffer" : 0,
            "byteLength" : 2724,
            "byteOffset" : 2724
        },
        {
            "buffer" : 0,
            "byteLength" : 1816,
            "byteOffset" : 5448
        },
        {
            "buffer" : 0,
            "byteLength" : 960,
            "byteOffset" : 7264
        },
        {
            "buffer" : 0,
            "byteLength" : 2724,
            "byteOffset" : 8224
        },
        {
            "buffer" : 0,
            "byteLength" : 2724,
            "byteOffset" : 10948
        },
        {
            "buffer" : 0,
            "byteLength" : 1816,
            "byteOffset" : 13672
        },
        {
            "buffer" : 0,
            "byteLength" : 4,
            "byteOffset" : 15488
        },
        {
            "buffer" : 0,
            "byteLength" : 12,
            "byteOffset" : 15492
        },
        {
            "buffer" : 0,
            "byteLength" : 16,
            "byteOffset" : 15504
        },
        {
            "buffer" : 0,
            "byteLength" : 12,
            "byteOffset" : 15520
        },
        {
            "buffer" : 0,
            "byteLength" : 12,
            "byteOffset" : 15532
        },
        {
            "buffer" : 0,
            "byteLength" : 16,
            "byteOffset" : 15544
        },
        {
            "buffer" : 0,
            "byteLength" : 12,
            "byteOffset" : 15560
        }
    ],
    "buffers" : [
        {
            "byteLength" : 15572,
            "uri" : "data:application/octet-stream;base64,"
        }
    ]
}
