{
    "asset" : {
        "generator" : "Khronos glTF Blender I/O v1.7.33",
        "version" : "2.0"
    },
    "scene" : 0,
    "scenes" : [
        {
            "name" : "Scene",
            "nodes" : [
                0,
                1
            ]
        }
    ],
    "nodes" : [
        {
            "mesh" : 0,
            "name" : "elevador_StaticMeshComponent0",
            "translation" : [
                0,
                0.05000000447034836,
                0
            ]
        },
        {
            "mesh" : 1,
            "name" : "elevador_StaticMeshComponent0.001_collider",
            "translation" : [
                0,
                0.05000000447034836,
                0
            ]
        }
    ],
    "materials" : [
        {
            "name" : "M_plaster_02-1_inst",
            "normalTexture" : {
                "index" : 0
            },
            "occlusionTexture" : {
                "index" : 1
            },
            "pbrMetallicRoughness" : {
                "baseColorTexture" : {
                    "index" : 2
                },
                "metallicRoughnessTexture" : {
                    "index" : 1
                }
            }
        }
    ],
    "meshes" : [
        {
            "name" : "elevador",
            "primitives" : [
                {
                    "attributes" : {
                        "POSITION" : 0,
                        "NORMAL" : 1,
                        "TEXCOORD_0" : 2,
                        "TEXCOORD_1" : 3,
                        "TEXCOORD_2" : 4
                    },
                    "indices" : 5,
                    "material" : 0
                }
            ]
        },
        {
            "name" : "elevador.002",
            "primitives" : [
                {
                    "attributes" : {
                        "POSITION" : 6,
                        "NORMAL" : 7,
                        "TEXCOORD_0" : 8,
                        "TEXCOORD_1" : 9,
                        "TEXCOORD_2" : 10
                    },
                    "indices" : 5,
                    "material" : 0
                }
            ]
        }
    ],
    "textures" : [
        {
            "sampler" : 0,
            "source" : 0
        },
        {
            "sampler" : 0,
            "source" : 1
        },
        {
            "sampler" : 0,
            "source" : 2
        }
    ],
    "images" : [
        {
            "bufferView" : 6,
            "mimeType" : "image/png",
            "name" : "M_plaster_02-1_inst_Normal"
        },
        {
            "bufferView" : 7,
            "mimeType" : "image/png",
            "name" : "M_plaster_02-1_inst_Occlusion-M_plaster_02-1_inst_MetallicRoughness"
        },
        {
            "bufferView" : 8,
            "mimeType" : "image/png",
            "name" : "M_plaster_02-1_inst_BaseColor"
        }
    ],
    "accessors" : [
        {
            "bufferView" : 0,
            "componentType" : 5126,
            "count" : 24,
            "max" : [
                1,
                0.049999989569187164,
                1
            ],
            "min" : [
                -1,
                -0.05000000447034836,
                -1
            ],
            "type" : "VEC3"
        },
        {
            "bufferView" : 1,
            "componentType" : 5126,
            "count" : 24,
            "type" : "VEC3"
        },
        {
            "bufferView" : 2,
            "componentType" : 5126,
            "count" : 24,
            "type" : "VEC2"
        },
        {
            "bufferView" : 3,
            "componentType" : 5126,
            "count" : 24,
            "type" : "VEC2"
        },
        {
            "bufferView" : 4,
            "componentType" : 5126,
            "count" : 24,
            "type" : "VEC2"
        },
        {
            "bufferView" : 5,
            "componentType" : 5123,
            "count" : 36,
            "type" : "SCALAR"
        },
        {
            "bufferView" : 9,
            "componentType" : 5126,
            "count" : 24,
            "max" : [
                1,
                0.049999989569187164,
                1
            ],
            "min" : [
                -1,
                -0.05000000447034836,
                -1
            ],
            "type" : "VEC3"
        },
        {
            "bufferView" : 10,
            "componentType" : 5126,
            "count" : 24,
            "type" : "VEC3"
        },
        {
            "bufferView" : 11,
            "componentType" : 5126,
            "count" : 24,
            "type" : "VEC2"
        },
        {
            "bufferView" : 12,
            "componentType" : 5126,
            "count" : 24,
            "type" : "VEC2"
        },
        {
            "bufferView" : 13,
            "componentType" : 5126,
            "count" : 24,
            "type" : "VEC2"
        }
    ],
    "bufferViews" : [
        {
            "buffer" : 0,
            "byteLength" : 288,
            "byteOffset" : 0
        },
        {
            "buffer" : 0,
            "byteLength" : 288,
            "byteOffset" : 288
        },
        {
            "buffer" : 0,
            "byteLength" : 192,
            "byteOffset" : 576
        },
        {
            "buffer" : 0,
            "byteLength" : 192,
            "byteOffset" : 768
        },
        {
            "buffer" : 0,
            "byteLength" : 192,
            "byteOffset" : 960
        },
        {
            "buffer" : 0,
            "byteLength" : 72,
            "byteOffset" : 1152
        },
        {
            "buffer" : 0,
            "byteLength" : 510378,
            "byteOffset" : 1224
        },
        {
            "buffer" : 0,
            "byteLength" : 348776,
            "byteOffset" : 511604
        },
        {
            "buffer" : 0,
            "byteLength" : 371777,
            "byteOffset" : 860380
        },
        {
            "buffer" : 0,
            "byteLength" : 288,
            "byteOffset" : 1232160
        },
        {
            "buffer" : 0,
            "byteLength" : 288,
            "byteOffset" : 1232448
        },
        {
            "buffer" : 0,
            "byteLength" : 192,
            "byteOffset" : 1232736
        },
        {
            "buffer" : 0,
            "byteLength" : 192,
            "byteOffset" : 1232928
        },
        {
            "buffer" : 0,
            "byteLength" : 192,
            "byteOffset" : 1233120
        }
    ],
    "samplers" : [
        {
            "magFilter" : 9729,
            "minFilter" : 9987
        }
    ],
    "buffers" : [
        {
            "byteLength" : 1233312,
            "uri" : "data:application/octet-stream;base64,"
        }
    ]
}
