{
    "asset" : {
        "generator" : "Khronos glTF Blender I/O v1.7.33",
        "version" : "2.0"
    },
    "scene" : 0,
    "scenes" : [
        {
            "name" : "Scene",
            "nodes" : [
                0,
                1,
                2,
                3,
                4,
                5,
                6
            ]
        }
    ],
    "nodes" : [
        {
            "mesh" : 0,
            "name" : "House",
            "translation" : [
                0,
                6.9596943855285645,
                0
            ]
        },
        {
            "mesh" : 1,
            "name" : "Stair",
            "rotation" : [
                0,
                -0.7372773289680481,
                0,
                0.6755902171134949
            ],
            "scale" : [
                0.7513240575790405,
                0.17430412769317627,
                0.5481338500976562
            ],
            "translation" : [
                0.15319836139678955,
                3.5587682723999023,
                -3.4590249061584473
            ]
        },
        {
            "mesh" : 2,
            "name" : "Cylinder.001",
            "translation" : [
                0,
                6.9596943855285645,
                0
            ]
        },
        {
            "mesh" : 3,
            "name" : "Ground",
            "scale" : [
                0.6771647334098816,
                0.6771647334098816,
                0.6771647334098816
            ],
            "translation" : [
                0,
                4.643768787384033,
                0
            ]
        },
        {
            "mesh" : 4,
            "name" : "House_collider",
            "translation" : [
                0,
                6.9596943855285645,
                0
            ]
        },
        {
            "mesh" : 5,
            "name" : "Ground_collider",
            "scale" : [
                0.6771647334098816,
                0.6771647334098816,
                0.6771647334098816
            ],
            "translation" : [
                0,
                4.643768787384033,
                0
            ]
        },
        {
            "mesh" : 6,
            "name" : "Stair_collider",
            "rotation" : [
                0.1618579775094986,
                0,
                0,
                0.9868140816688538
            ],
            "scale" : [
                0.10041642189025879,
                1,
                0.516425609588623
            ],
            "translation" : [
                -4.778875827789307,
                1.3798366785049438,
                -0.1441888064146042
            ]
        }
    ],
    "materials" : [
        {
            "doubleSided" : true,
            "name" : "Material.001",
            "pbrMetallicRoughness" : {
                "baseColorFactor" : [
                    0.20760178565979004,
                    0.37413737177848816,
                    0.8000000715255737,
                    1
                ],
                "metallicFactor" : 0,
                "roughnessFactor" : 0.5
            }
        }
    ],
    "meshes" : [
        {
            "name" : "Cylinder",
            "primitives" : [
                {
                    "attributes" : {
                        "POSITION" : 0,
                        "NORMAL" : 1,
                        "TEXCOORD_0" : 2
                    },
                    "indices" : 3,
                    "material" : 0
                }
            ]
        },
        {
            "name" : "Cube.013",
            "primitives" : [
                {
                    "attributes" : {
                        "POSITION" : 4,
                        "NORMAL" : 5,
                        "TEXCOORD_0" : 6
                    },
                    "indices" : 7
                }
            ]
        },
        {
            "name" : "Cylinder.001",
            "primitives" : [
                {
                    "attributes" : {
                        "POSITION" : 8,
                        "NORMAL" : 9,
                        "TEXCOORD_0" : 10
                    },
                    "indices" : 11,
                    "material" : 0
                }
            ]
        },
        {
            "name" : "Plane.002",
            "primitives" : [
                {
                    "attributes" : {
                        "POSITION" : 12,
                        "NORMAL" : 13,
                        "TEXCOORD_0" : 14
                    },
                    "indices" : 15
                }
            ]
        },
        {
            "name" : "Cylinder.003",
            "primitives" : [
                {
                    "attributes" : {
                        "POSITION" : 16,
                        "NORMAL" : 17,
                        "TEXCOORD_0" : 18
                    },
                    "indices" : 3,
                    "material" : 0
                }
            ]
        },
        {
            "name" : "Plane.003",
            "primitives" : [
                {
                    "attributes" : {
                        "POSITION" : 19,
                        "NORMAL" : 20,
                        "TEXCOORD_0" : 21
                    },
                    "indices" : 15
                }
            ]
        },
        {
            "name" : "Plane.004",
            "primitives" : [
                {
                    "attributes" : {
                        "POSITION" : 22,
                        "NORMAL" : 23,
                        "TEXCOORD_0" : 24
                    },
                    "indices" : 25
                }
            ]
        }
    ],
    "accessors" : [
        {
            "bufferView" : 0,
            "componentType" : 5126,
            "count" : 540,
            "max" : [
                7.230000019073486,
                6.994999885559082,
                7.230000019073486
            ],
            "min" : [
                -7.230000019073486,
                -6.994999885559082,
                -7.230000019073486
            ],
            "type" : "VEC3"
        },
        {
            "bufferView" : 1,
            "componentType" : 5126,
            "count" : 540,
            "type" : "VEC3"
        },
        {
            "bufferView" : 2,
            "componentType" : 5126,
            "count" : 540,
            "type" : "VEC2"
        },
        {
            "bufferView" : 3,
            "componentType" : 5123,
            "count" : 936,
            "type" : "SCALAR"
        },
        {
            "bufferView" : 4,
            "componentType" : 5126,
            "count" : 384,
            "max" : [
                9.450458526611328,
                6.298093795776367,
                10.214325904846191
            ],
            "min" : [
                -1,
                -20.66858673095703,
                -5.764397144317627
            ],
            "type" : "VEC3"
        },
        {
            "bufferView" : 5,
            "componentType" : 5126,
            "count" : 384,
            "type" : "VEC3"
        },
        {
            "bufferView" : 6,
            "componentType" : 5126,
            "count" : 384,
            "type" : "VEC2"
        },
        {
            "bufferView" : 7,
            "componentType" : 5123,
            "count" : 576,
            "type" : "SCALAR"
        },
        {
            "bufferView" : 8,
            "componentType" : 5126,
            "count" : 32,
            "max" : [
                7.230000019073486,
                6.994999885559082,
                7.230000019073486
            ],
            "min" : [
                -7.230000019073486,
                6.994999885559082,
                -7.230000019073486
            ],
            "type" : "VEC3"
        },
        {
            "bufferView" : 9,
            "componentType" : 5126,
            "count" : 32,
            "type" : "VEC3"
        },
        {
            "bufferView" : 10,
            "componentType" : 5126,
            "count" : 32,
            "type" : "VEC2"
        },
        {
            "bufferView" : 11,
            "componentType" : 5123,
            "count" : 90,
            "type" : "SCALAR"
        },
        {
            "bufferView" : 12,
            "componentType" : 5126,
            "count" : 346,
            "max" : [
                8,
                0.12059327960014343,
                8
            ],
            "min" : [
                -8.010054588317871,
                0,
                -8.001198768615723
            ],
            "type" : "VEC3"
        },
        {
            "bufferView" : 13,
            "componentType" : 5126,
            "count" : 346,
            "type" : "VEC3"
        },
        {
            "bufferView" : 14,
            "componentType" : 5126,
            "count" : 346,
            "type" : "VEC2"
        },
        {
            "bufferView" : 15,
            "componentType" : 5123,
            "count" : 996,
            "type" : "SCALAR"
        },
        {
            "bufferView" : 16,
            "componentType" : 5126,
            "count" : 540,
            "max" : [
                7.230000019073486,
                6.994999885559082,
                7.230000019073486
            ],
            "min" : [
                -7.230000019073486,
                -6.994999885559082,
                -7.230000019073486
            ],
            "type" : "VEC3"
        },
        {
            "bufferView" : 17,
            "componentType" : 5126,
            "count" : 540,
            "type" : "VEC3"
        },
        {
            "bufferView" : 18,
            "componentType" : 5126,
            "count" : 540,
            "type" : "VEC2"
        },
        {
            "bufferView" : 19,
            "componentType" : 5126,
            "count" : 346,
            "max" : [
                8,
                0.12059327960014343,
                8
            ],
            "min" : [
                -8.010054588317871,
                0,
                -8.001198768615723
            ],
            "type" : "VEC3"
        },
        {
            "bufferView" : 20,
            "componentType" : 5126,
            "count" : 346,
            "type" : "VEC3"
        },
        {
            "bufferView" : 21,
            "componentType" : 5126,
            "count" : 346,
            "type" : "VEC2"
        },
        {
            "bufferView" : 22,
            "componentType" : 5126,
            "count" : 20,
            "max" : [
                81.3616714477539,
                2.429043769836426,
                8
            ],
            "min" : [
                -8,
                -0.40542417764663696,
                -9.048189163208008
            ],
            "type" : "VEC3"
        },
        {
            "bufferView" : 23,
            "componentType" : 5126,
            "count" : 20,
            "type" : "VEC3"
        },
        {
            "bufferView" : 24,
            "componentType" : 5126,
            "count" : 20,
            "type" : "VEC2"
        },
        {
            "bufferView" : 25,
            "componentType" : 5123,
            "count" : 30,
            "type" : "SCALAR"
        }
    ],
    "bufferViews" : [
        {
            "buffer" : 0,
            "byteLength" : 6480,
            "byteOffset" : 0
        },
        {
            "buffer" : 0,
            "byteLength" : 6480,
            "byteOffset" : 6480
        },
        {
            "buffer" : 0,
            "byteLength" : 4320,
            "byteOffset" : 12960
        },
        {
            "buffer" : 0,
            "byteLength" : 1872,
            "byteOffset" : 17280
        },
        {
            "buffer" : 0,
            "byteLength" : 4608,
            "byteOffset" : 19152
        },
        {
            "buffer" : 0,
            "byteLength" : 4608,
            "byteOffset" : 23760
        },
        {
            "buffer" : 0,
            "byteLength" : 3072,
            "byteOffset" : 28368
        },
        {
            "buffer" : 0,
            "byteLength" : 1152,
            "byteOffset" : 31440
        },
        {
            "buffer" : 0,
            "byteLength" : 384,
            "byteOffset" : 32592
        },
        {
            "buffer" : 0,
            "byteLength" : 384,
            "byteOffset" : 32976
        },
        {
            "buffer" : 0,
            "byteLength" : 256,
            "byteOffset" : 33360
        },
        {
            "buffer" : 0,
            "byteLength" : 180,
            "byteOffset" : 33616
        },
        {
            "buffer" : 0,
            "byteLength" : 4152,
            "byteOffset" : 33796
        },
        {
            "buffer" : 0,
            "byteLength" : 4152,
            "byteOffset" : 37948
        },
        {
            "buffer" : 0,
            "byteLength" : 2768,
            "byteOffset" : 42100
        },
        {
            "buffer" : 0,
            "byteLength" : 1992,
            "byteOffset" : 44868
        },
        {
            "buffer" : 0,
            "byteLength" : 6480,
            "byteOffset" : 46860
        },
        {
            "buffer" : 0,
            "byteLength" : 6480,
            "byteOffset" : 53340
        },
        {
            "buffer" : 0,
            "byteLength" : 4320,
            "byteOffset" : 59820
        },
        {
            "buffer" : 0,
            "byteLength" : 4152,
            "byteOffset" : 64140
        },
        {
            "buffer" : 0,
            "byteLength" : 4152,
            "byteOffset" : 68292
        },
        {
            "buffer" : 0,
            "byteLength" : 2768,
            "byteOffset" : 72444
        },
        {
            "buffer" : 0,
            "byteLength" : 240,
            "byteOffset" : 75212
        },
        {
            "buffer" : 0,
            "byteLength" : 240,
            "byteOffset" : 75452
        },
        {
            "buffer" : 0,
            "byteLength" : 160,
            "byteOffset" : 75692
        },
        {
            "buffer" : 0,
            "byteLength" : 60,
            "byteOffset" : 75852
        }
    ],
    "buffers" : [
        {
            "byteLength" : 75912,
            "uri" : "data:application/octet-stream;base64,"
        }
    ]
}
