{
    "asset" : {
        "generator" : "Khronos glTF Blender I/O v1.7.33",
        "version" : "2.0"
    },
    "scene" : 0,
    "scenes" : [
        {
            "name" : "Scene",
            "nodes" : [
                0,
                1,
                2,
                3
            ]
        }
    ],
    "nodes" : [
        {
            "mesh" : 0,
            "name" : "Cylinder",
            "translation" : [
                0,
                6.977307319641113,
                0
            ]
        },
        {
            "mesh" : 1,
            "name" : "Cylinder_collider",
            "translation" : [
                0,
                6.977307319641113,
                0
            ]
        },
        {
            "mesh" : 2,
            "name" : "Cube.038",
            "rotation" : [
                0,
                -0.7300668954849243,
                0,
                0.6833757162094116
            ],
            "scale" : [
                0.4021432399749756,
                0.13527220487594604,
                0.7792174220085144
            ],
            "translation" : [
                6.4311699867248535,
                9.073184967041016,
                0.371057391166687
            ]
        },
        {
            "mesh" : 3,
            "name" : "Plane.001_collider",
            "rotation" : [
                0,
                0.09333603829145432,
                0,
                0.9956346750259399
            ],
            "scale" : [
                0.13944725692272186,
                0.13944725692272186,
                0.13944725692272186
            ],
            "translation" : [
                2.085603713989258,
                0.22812074422836304,
                6.147146224975586
            ]
        }
    ],
    "materials" : [
        {
            "doubleSided" : true,
            "name" : "Material.001",
            "pbrMetallicRoughness" : {
                "baseColorFactor" : [
                    0.8000000715255737,
                    0.6674686074256897,
                    0.4845164716243744,
                    1
                ],
                "metallicFactor" : 0,
                "roughnessFactor" : 0.5
            }
        },
        {
            "doubleSided" : true,
            "name" : "Material",
            "pbrMetallicRoughness" : {
                "baseColorFactor" : [
                    0.13302721083164215,
                    0.8000000715255737,
                    0.15346010029315948,
                    1
                ],
                "metallicFactor" : 0,
                "roughnessFactor" : 0.4000000059604645
            }
        }
    ],
    "meshes" : [
        {
            "name" : "Cylinder",
            "primitives" : [
                {
                    "attributes" : {
                        "POSITION" : 0,
                        "NORMAL" : 1,
                        "TEXCOORD_0" : 2
                    },
                    "indices" : 3,
                    "material" : 0
                }
            ]
        },
        {
            "name" : "Cylinder.002",
            "primitives" : [
                {
                    "attributes" : {
                        "POSITION" : 4,
                        "NORMAL" : 5,
                        "TEXCOORD_0" : 6
                    },
                    "indices" : 7
                }
            ]
        },
        {
            "name" : "Cube.040",
            "primitives" : [
                {
                    "attributes" : {
                        "POSITION" : 8,
                        "NORMAL" : 9,
                        "TEXCOORD_0" : 10
                    },
                    "indices" : 11,
                    "material" : 1
                }
            ]
        },
        {
            "name" : "Plane.001",
            "primitives" : [
                {
                    "attributes" : {
                        "POSITION" : 12,
                        "NORMAL" : 13,
                        "TEXCOORD_0" : 14
                    },
                    "indices" : 15
                }
            ]
        }
    ],
    "accessors" : [
        {
            "bufferView" : 0,
            "componentType" : 5126,
            "count" : 284,
            "max" : [
                7.604437828063965,
                6.974999904632568,
                7.800000190734863
            ],
            "min" : [
                -7.604437828063965,
                -6.974999904632568,
                -7.800000190734863
            ],
            "type" : "VEC3"
        },
        {
            "bufferView" : 1,
            "componentType" : 5126,
            "count" : 284,
            "type" : "VEC3"
        },
        {
            "bufferView" : 2,
            "componentType" : 5126,
            "count" : 284,
            "type" : "VEC2"
        },
        {
            "bufferView" : 3,
            "componentType" : 5123,
            "count" : 504,
            "type" : "SCALAR"
        },
        {
            "bufferView" : 4,
            "componentType" : 5126,
            "count" : 252,
            "max" : [
                7.604437828063965,
                6.974999904632568,
                7.800000190734863
            ],
            "min" : [
                -7.604437828063965,
                -6.974999904632568,
                -7.800000190734863
            ],
            "type" : "VEC3"
        },
        {
            "bufferView" : 5,
            "componentType" : 5126,
            "count" : 252,
            "type" : "VEC3"
        },
        {
            "bufferView" : 6,
            "componentType" : 5126,
            "count" : 252,
            "type" : "VEC2"
        },
        {
            "bufferView" : 7,
            "componentType" : 5123,
            "count" : 420,
            "type" : "SCALAR"
        },
        {
            "bufferView" : 8,
            "componentType" : 5126,
            "count" : 1248,
            "max" : [
                18.69782829284668,
                31.94585418701172,
                17.618135452270508
            ],
            "min" : [
                -17.56665802001953,
                -65.3292007446289,
                -1.011813759803772
            ],
            "type" : "VEC3"
        },
        {
            "bufferView" : 9,
            "componentType" : 5126,
            "count" : 1248,
            "type" : "VEC3"
        },
        {
            "bufferView" : 10,
            "componentType" : 5126,
            "count" : 1248,
            "type" : "VEC2"
        },
        {
            "bufferView" : 11,
            "componentType" : 5123,
            "count" : 1872,
            "type" : "SCALAR"
        },
        {
            "bufferView" : 12,
            "componentType" : 5126,
            "count" : 82,
            "max" : [
                49.14599609375,
                98.44580841064453,
                9.060237884521484
            ],
            "min" : [
                -62.52857971191406,
                0,
                -100.9599838256836
            ],
            "type" : "VEC3"
        },
        {
            "bufferView" : 13,
            "componentType" : 5126,
            "count" : 82,
            "type" : "VEC3"
        },
        {
            "bufferView" : 14,
            "componentType" : 5126,
            "count" : 82,
            "type" : "VEC2"
        },
        {
            "bufferView" : 15,
            "componentType" : 5123,
            "count" : 138,
            "type" : "SCALAR"
        }
    ],
    "bufferViews" : [
        {
            "buffer" : 0,
            "byteLength" : 3408,
            "byteOffset" : 0
        },
        {
            "buffer" : 0,
            "byteLength" : 3408,
            "byteOffset" : 3408
        },
        {
            "buffer" : 0,
            "byteLength" : 2272,
            "byteOffset" : 6816
        },
        {
            "buffer" : 0,
            "byteLength" : 1008,
            "byteOffset" : 9088
        },
        {
            "buffer" : 0,
            "byteLength" : 3024,
            "byteOffset" : 10096
        },
        {
            "buffer" : 0,
            "byteLength" : 3024,
            "byteOffset" : 13120
        },
        {
            "buffer" : 0,
            "byteLength" : 2016,
            "byteOffset" : 16144
        },
        {
            "buffer" : 0,
            "byteLength" : 840,
            "byteOffset" : 18160
        },
        {
            "buffer" : 0,
            "byteLength" : 14976,
            "byteOffset" : 19000
        },
        {
            "buffer" : 0,
            "byteLength" : 14976,
            "byteOffset" : 33976
        },
        {
            "buffer" : 0,
            "byteLength" : 9984,
            "byteOffset" : 48952
        },
        {
            "buffer" : 0,
            "byteLength" : 3744,
            "byteOffset" : 58936
        },
        {
            "buffer" : 0,
            "byteLength" : 984,
            "byteOffset" : 62680
        },
        {
            "buffer" : 0,
            "byteLength" : 984,
            "byteOffset" : 63664
        },
        {
            "buffer" : 0,
            "byteLength" : 656,
            "byteOffset" : 64648
        },
        {
            "buffer" : 0,
            "byteLength" : 276,
            "byteOffset" : 65304
        }
    ],
    "buffers" : [
        {
            "byteLength" : 65580,
            "uri" : "data:application/octet-stream;base64,"
        }
    ]
}
