{
    "asset" : {
        "generator" : "Khronos glTF Blender I/O v1.8.19",
        "version" : "2.0"
    },
    "scene" : 0,
    "scenes" : [
        {
            "name" : "Scene",
            "nodes" : [
                0
            ]
        }
    ],
    "nodes" : [
        {
            "mesh" : 0,
            "name" : "Box022_StaticMeshComponent0.002",
            "rotation" : [
                0,
                0.7071068286895752,
                0,
                0.7071067690849304
            ],
            "scale" : [
                0.31467100977897644,
                1,
                1
            ],
            "translation" : [
                -2.1073668003082275,
                6.939499855041504,
                -3.433122396469116
            ]
        }
    ],
    "materials" : [
        {
            "name" : "Material__31",
            "pbrMetallicRoughness" : {
                "baseColorFactor" : [
                    0.04666508734226227,
                    0.04666508734226227,
                    0.04666508734226227,
                    1
                ],
                "roughnessFactor" : 0.9559733271598816
            }
        },
        {
            "name" : "Material__28",
            "pbrMetallicRoughness" : {
                "baseColorTexture" : {
                    "index" : 0
                },
                "metallicFactor" : 0,
                "roughnessFactor" : 0.8962693214416504
            }
        }
    ],
    "meshes" : [
        {
            "name" : "Box022.004",
            "primitives" : [
                {
                    "attributes" : {
                        "POSITION" : 0,
                        "NORMAL" : 1,
                        "TEXCOORD_0" : 2,
                        "TEXCOORD_1" : 3
                    },
                    "indices" : 4,
                    "material" : 0
                },
                {
                    "attributes" : {
                        "POSITION" : 5,
                        "NORMAL" : 6,
                        "TEXCOORD_0" : 7,
                        "TEXCOORD_1" : 8
                    },
                    "indices" : 9,
                    "material" : 1
                }
            ]
        }
    ],
    "textures" : [
        {
            "sampler" : 0,
            "source" : 0
        }
    ],
    "images" : [
        {
            "bufferView" : 10,
            "mimeType" : "image/png",
            "name" : "Material__28_BaseColor"
        }
    ],
    "accessors" : [
        {
            "bufferView" : 0,
            "componentType" : 5126,
            "count" : 20,
            "max" : [
                0.16527339816093445,
                1.249999761581421,
                0.9474477767944336
            ],
            "min" : [
                -0.16527339816093445,
                -1.25,
                -0.9474472999572754
            ],
            "type" : "VEC3"
        },
        {
            "bufferView" : 1,
            "componentType" : 5126,
            "count" : 20,
            "type" : "VEC3"
        },
        {
            "bufferView" : 2,
            "componentType" : 5126,
            "count" : 20,
            "type" : "VEC2"
        },
        {
            "bufferView" : 3,
            "componentType" : 5126,
            "count" : 20,
            "type" : "VEC2"
        },
        {
            "bufferView" : 4,
            "componentType" : 5123,
            "count" : 24,
            "type" : "SCALAR"
        },
        {
            "bufferView" : 5,
            "componentType" : 5126,
            "count" : 8,
            "max" : [
                0.16527339816093445,
                1.249999761581421,
                0.9474477767944336
            ],
            "min" : [
                -0.16527339816093445,
                -1.25,
                -0.9474472999572754
            ],
            "type" : "VEC3"
        },
        {
            "bufferView" : 6,
            "componentType" : 5126,
            "count" : 8,
            "type" : "VEC3"
        },
        {
            "bufferView" : 7,
            "componentType" : 5126,
            "count" : 8,
            "type" : "VEC2"
        },
        {
            "bufferView" : 8,
            "componentType" : 5126,
            "count" : 8,
            "type" : "VEC2"
        },
        {
            "bufferView" : 9,
            "componentType" : 5123,
            "count" : 12,
            "type" : "SCALAR"
        }
    ],
    "bufferViews" : [
        {
            "buffer" : 0,
            "byteLength" : 240,
            "byteOffset" : 0
        },
        {
            "buffer" : 0,
            "byteLength" : 240,
            "byteOffset" : 240
        },
        {
            "buffer" : 0,
            "byteLength" : 160,
            "byteOffset" : 480
        },
        {
            "buffer" : 0,
            "byteLength" : 160,
            "byteOffset" : 640
        },
        {
            "buffer" : 0,
            "byteLength" : 48,
            "byteOffset" : 800
        },
        {
            "buffer" : 0,
            "byteLength" : 96,
            "byteOffset" : 848
        },
        {
            "buffer" : 0,
            "byteLength" : 96,
            "byteOffset" : 944
        },
        {
            "buffer" : 0,
            "byteLength" : 64,
            "byteOffset" : 1040
        },
        {
            "buffer" : 0,
            "byteLength" : 64,
            "byteOffset" : 1104
        },
        {
            "buffer" : 0,
            "byteLength" : 24,
            "byteOffset" : 1168
        },
        {
            "buffer" : 0,
            "byteLength" : 1367578,
            "byteOffset" : 1192
        }
    ],
    "samplers" : [
        {
            "magFilter" : 9729,
            "minFilter" : 9987
        }
    ],
    "buffers" : [
        {
            "byteLength" : 1368772,
            "uri" : "data:application/octet-stream;base64,"
        }
    ]
}
