{
    "asset" : {
        "generator" : "Khronos glTF Blender I/O v1.7.33",
        "version" : "2.0"
    },
    "scene" : 0,
    "scenes" : [
        {
            "name" : "Scene",
            "nodes" : [
                0,
                1,
                2,
                3,
                4,
                5,
                6,
                7,
                8,
                9,
                10
            ]
        }
    ],
    "nodes" : [
        {
            "mesh" : 0,
            "name" : "Plane"
        },
        {
            "mesh" : 1,
            "name" : "Cube",
            "scale" : [
                0.3063960075378418,
                1,
                0.3063960075378418
            ]
        },
        {
            "mesh" : 2,
            "name" : "Cube.001",
            "scale" : [
                7.091451168060303,
                3.9552650451660156,
                7.091451168060303
            ],
            "translation" : [
                -0.48763519525527954,
                3.982353925704956,
                0
            ]
        },
        {
            "mesh" : 3,
            "name" : "Plane.001",
            "scale" : [
                0.863183856010437,
                0.7682085633277893,
                0.8649889826774597
            ],
            "translation" : [
                -0.5361729860305786,
                0,
                0
            ]
        },
        {
            "mesh" : 4,
            "name" : "Plane.002",
            "scale" : [
                0.4925508499145508,
                0.7682085633277893,
                0.8649889826774597
            ],
            "translation" : [
                -3.4710144996643066,
                3.28873872756958,
                0
            ]
        },
        {
            "mesh" : 5,
            "name" : "Plane.003",
            "scale" : [
                0.37042036652565,
                0.7682085633277893,
                0.8649889826774597
            ],
            "translation" : [
                3.492987871170044,
                5.501813888549805,
                0
            ]
        },
        {
            "mesh" : 6,
            "name" : "Plane.004",
            "rotation" : [
                0,
                0,
                -0.3006252348423004,
                0.9537424445152283
            ],
            "scale" : [
                3.126671075820923,
                0.9398090839385986,
                0.51619553565979
            ],
            "translation" : [
                2.766845941543579,
                1.8270998001098633,
                -6.257682800292969
            ]
        },
        {
            "mesh" : 7,
            "name" : "Plane.005",
            "rotation" : [
                -0.32929709553718567,
                0.9442263841629028,
                0,
                -4.6879566184543364e-07
            ],
            "scale" : [
                1.8178428411483765,
                0.765748918056488,
                0.51619553565979
            ],
            "translation" : [
                -0.8623414635658264,
                4.60474157333374,
                6.416522979736328
            ]
        },
        {
            "mesh" : 8,
            "name" : "Plane.007_collider",
            "scale" : [
                0.4925508499145508,
                0.7682085633277893,
                0.8649889826774597
            ],
            "translation" : [
                -3.4710144996643066,
                3.28873872756958,
                0
            ]
        },
        {
            "mesh" : 9,
            "name" : "Plane.005_collider",
            "rotation" : [
                0,
                0,
                -0.3006252348423004,
                0.9537424445152283
            ],
            "scale" : [
                3.126671075820923,
                0.9398090839385986,
                0.51619553565979
            ],
            "translation" : [
                2.766845941543579,
                1.8270998001098633,
                -6.257682800292969
            ]
        },
        {
            "mesh" : 10,
            "name" : "Plane.006_collider",
            "rotation" : [
                -0.32929709553718567,
                0.9442263841629028,
                0,
                -4.6879566184543364e-07
            ],
            "scale" : [
                1.8178428411483765,
                0.765748918056488,
                0.51619553565979
            ],
            "translation" : [
                -0.8623414635658264,
                4.60474157333374,
                6.255615234375
            ]
        }
    ],
    "meshes" : [
        {
            "name" : "Plane",
            "primitives" : [
                {
                    "attributes" : {
                        "POSITION" : 0,
                        "NORMAL" : 1,
                        "TEXCOORD_0" : 2
                    },
                    "indices" : 3
                }
            ]
        },
        {
            "name" : "Cube.001",
            "primitives" : [
                {
                    "attributes" : {
                        "POSITION" : 4,
                        "NORMAL" : 5,
                        "TEXCOORD_0" : 6
                    },
                    "indices" : 7
                }
            ]
        },
        {
            "name" : "Cube.003",
            "primitives" : [
                {
                    "attributes" : {
                        "POSITION" : 8,
                        "NORMAL" : 9,
                        "TEXCOORD_0" : 10
                    },
                    "indices" : 11
                }
            ]
        },
        {
            "name" : "Plane.001",
            "primitives" : [
                {
                    "attributes" : {
                        "POSITION" : 12,
                        "NORMAL" : 13,
                        "TEXCOORD_0" : 14
                    },
                    "indices" : 3
                }
            ]
        },
        {
            "name" : "Plane.002",
            "primitives" : [
                {
                    "attributes" : {
                        "POSITION" : 15,
                        "NORMAL" : 16,
                        "TEXCOORD_0" : 17
                    },
                    "indices" : 18
                }
            ]
        },
        {
            "name" : "Plane.004",
            "primitives" : [
                {
                    "attributes" : {
                        "POSITION" : 19,
                        "NORMAL" : 20,
                        "TEXCOORD_0" : 21
                    },
                    "indices" : 18
                }
            ]
        },
        {
            "name" : "Plane.003",
            "primitives" : [
                {
                    "attributes" : {
                        "POSITION" : 22,
                        "NORMAL" : 23,
                        "TEXCOORD_0" : 24
                    },
                    "indices" : 3
                }
            ]
        },
        {
            "name" : "Plane.006",
            "primitives" : [
                {
                    "attributes" : {
                        "POSITION" : 25,
                        "NORMAL" : 26,
                        "TEXCOORD_0" : 27
                    },
                    "indices" : 3
                }
            ]
        },
        {
            "name" : "Plane.009",
            "primitives" : [
                {
                    "attributes" : {
                        "POSITION" : 28,
                        "NORMAL" : 29,
                        "TEXCOORD_0" : 30
                    },
                    "indices" : 31
                }
            ]
        },
        {
            "name" : "Plane.005",
            "primitives" : [
                {
                    "attributes" : {
                        "POSITION" : 32,
                        "NORMAL" : 33,
                        "TEXCOORD_0" : 34
                    },
                    "indices" : 3
                }
            ]
        },
        {
            "name" : "Plane.007",
            "primitives" : [
                {
                    "attributes" : {
                        "POSITION" : 35,
                        "NORMAL" : 36,
                        "TEXCOORD_0" : 37
                    },
                    "indices" : 3
                }
            ]
        }
    ],
    "accessors" : [
        {
            "bufferView" : 0,
            "componentType" : 5126,
            "count" : 4,
            "max" : [
                8,
                0,
                8
            ],
            "min" : [
                -8,
                0,
                -8
            ],
            "type" : "VEC3"
        },
        {
            "bufferView" : 1,
            "componentType" : 5126,
            "count" : 4,
            "type" : "VEC3"
        },
        {
            "bufferView" : 2,
            "componentType" : 5126,
            "count" : 4,
            "type" : "VEC2"
        },
        {
            "bufferView" : 3,
            "componentType" : 5123,
            "count" : 6,
            "type" : "SCALAR"
        },
        {
            "bufferView" : 4,
            "componentType" : 5126,
            "count" : 24,
            "max" : [
                1,
                2.0171189308166504,
                1
            ],
            "min" : [
                -1,
                0.01711881160736084,
                -1
            ],
            "type" : "VEC3"
        },
        {
            "bufferView" : 5,
            "componentType" : 5126,
            "count" : 24,
            "type" : "VEC3"
        },
        {
            "bufferView" : 6,
            "componentType" : 5126,
            "count" : 24,
            "type" : "VEC2"
        },
        {
            "bufferView" : 7,
            "componentType" : 5123,
            "count" : 36,
            "type" : "SCALAR"
        },
        {
            "bufferView" : 8,
            "componentType" : 5126,
            "count" : 98,
            "max" : [
                1,
                1.3087024688720703,
                1
            ],
            "min" : [
                -1,
                -1,
                -1
            ],
            "type" : "VEC3"
        },
        {
            "bufferView" : 9,
            "componentType" : 5126,
            "count" : 98,
            "type" : "VEC3"
        },
        {
            "bufferView" : 10,
            "componentType" : 5126,
            "count" : 98,
            "type" : "VEC2"
        },
        {
            "bufferView" : 11,
            "componentType" : 5123,
            "count" : 180,
            "type" : "SCALAR"
        },
        {
            "bufferView" : 12,
            "componentType" : 5126,
            "count" : 4,
            "max" : [
                8,
                0,
                8
            ],
            "min" : [
                -8,
                0,
                -8
            ],
            "type" : "VEC3"
        },
        {
            "bufferView" : 13,
            "componentType" : 5126,
            "count" : 4,
            "type" : "VEC3"
        },
        {
            "bufferView" : 14,
            "componentType" : 5126,
            "count" : 4,
            "type" : "VEC2"
        },
        {
            "bufferView" : 15,
            "componentType" : 5126,
            "count" : 24,
            "max" : [
                8,
                0.2970787286758423,
                8
            ],
            "min" : [
                -8,
                0,
                -8
            ],
            "type" : "VEC3"
        },
        {
            "bufferView" : 16,
            "componentType" : 5126,
            "count" : 24,
            "type" : "VEC3"
        },
        {
            "bufferView" : 17,
            "componentType" : 5126,
            "count" : 24,
            "type" : "VEC2"
        },
        {
            "bufferView" : 18,
            "componentType" : 5123,
            "count" : 36,
            "type" : "SCALAR"
        },
        {
            "bufferView" : 19,
            "componentType" : 5126,
            "count" : 24,
            "max" : [
                8,
                0.2970787286758423,
                8
            ],
            "min" : [
                -8,
                0,
                -8
            ],
            "type" : "VEC3"
        },
        {
            "bufferView" : 20,
            "componentType" : 5126,
            "count" : 24,
            "type" : "VEC3"
        },
        {
            "bufferView" : 21,
            "componentType" : 5126,
            "count" : 24,
            "type" : "VEC2"
        },
        {
            "bufferView" : 22,
            "componentType" : 5126,
            "count" : 4,
            "max" : [
                1,
                0,
                1
            ],
            "min" : [
                -1,
                0,
                -1
            ],
            "type" : "VEC3"
        },
        {
            "bufferView" : 23,
            "componentType" : 5126,
            "count" : 4,
            "type" : "VEC3"
        },
        {
            "bufferView" : 24,
            "componentType" : 5126,
            "count" : 4,
            "type" : "VEC2"
        },
        {
            "bufferView" : 25,
            "componentType" : 5126,
            "count" : 4,
            "max" : [
                1,
                0,
                1
            ],
            "min" : [
                -1,
                0,
                -1
            ],
            "type" : "VEC3"
        },
        {
            "bufferView" : 26,
            "componentType" : 5126,
            "count" : 4,
            "type" : "VEC3"
        },
        {
            "bufferView" : 27,
            "componentType" : 5126,
            "count" : 4,
            "type" : "VEC2"
        },
        {
            "bufferView" : 28,
            "componentType" : 5126,
            "count" : 152,
            "max" : [
                20.454397201538086,
                7.640998363494873,
                8.198314666748047
            ],
            "min" : [
                -8.340400695800781,
                -4.2810492515563965,
                -8.198314666748047
            ],
            "type" : "VEC3"
        },
        {
            "bufferView" : 29,
            "componentType" : 5126,
            "count" : 152,
            "type" : "VEC3"
        },
        {
            "bufferView" : 30,
            "componentType" : 5126,
            "count" : 152,
            "type" : "VEC2"
        },
        {
            "bufferView" : 31,
            "componentType" : 5123,
            "count" : 258,
            "type" : "SCALAR"
        },
        {
            "bufferView" : 32,
            "componentType" : 5126,
            "count" : 4,
            "max" : [
                1,
                0,
                1
            ],
            "min" : [
                -1,
                0,
                -1
            ],
            "type" : "VEC3"
        },
        {
            "bufferView" : 33,
            "componentType" : 5126,
            "count" : 4,
            "type" : "VEC3"
        },
        {
            "bufferView" : 34,
            "componentType" : 5126,
            "count" : 4,
            "type" : "VEC2"
        },
        {
            "bufferView" : 35,
            "componentType" : 5126,
            "count" : 4,
            "max" : [
                1,
                0,
                1
            ],
            "min" : [
                -1,
                0,
                -1
            ],
            "type" : "VEC3"
        },
        {
            "bufferView" : 36,
            "componentType" : 5126,
            "count" : 4,
            "type" : "VEC3"
        },
        {
            "bufferView" : 37,
            "componentType" : 5126,
            "count" : 4,
            "type" : "VEC2"
        }
    ],
    "bufferViews" : [
        {
            "buffer" : 0,
            "byteLength" : 48,
            "byteOffset" : 0
        },
        {
            "buffer" : 0,
            "byteLength" : 48,
            "byteOffset" : 48
        },
        {
            "buffer" : 0,
            "byteLength" : 32,
            "byteOffset" : 96
        },
        {
            "buffer" : 0,
            "byteLength" : 12,
            "byteOffset" : 128
        },
        {
            "buffer" : 0,
            "byteLength" : 288,
            "byteOffset" : 140
        },
        {
            "buffer" : 0,
            "byteLength" : 288,
            "byteOffset" : 428
        },
        {
            "buffer" : 0,
            "byteLength" : 192,
            "byteOffset" : 716
        },
        {
            "buffer" : 0,
            "byteLength" : 72,
            "byteOffset" : 908
        },
        {
            "buffer" : 0,
            "byteLength" : 1176,
            "byteOffset" : 980
        },
        {
            "buffer" : 0,
            "byteLength" : 1176,
            "byteOffset" : 2156
        },
        {
            "buffer" : 0,
            "byteLength" : 784,
            "byteOffset" : 3332
        },
        {
            "buffer" : 0,
            "byteLength" : 360,
            "byteOffset" : 4116
        },
        {
            "buffer" : 0,
            "byteLength" : 48,
            "byteOffset" : 4476
        },
        {
            "buffer" : 0,
            "byteLength" : 48,
            "byteOffset" : 4524
        },
        {
            "buffer" : 0,
            "byteLength" : 32,
            "byteOffset" : 4572
        },
        {
            "buffer" : 0,
            "byteLength" : 288,
            "byteOffset" : 4604
        },
        {
            "buffer" : 0,
            "byteLength" : 288,
            "byteOffset" : 4892
        },
        {
            "buffer" : 0,
            "byteLength" : 192,
            "byteOffset" : 5180
        },
        {
            "buffer" : 0,
            "byteLength" : 72,
            "byteOffset" : 5372
        },
        {
            "buffer" : 0,
            "byteLength" : 288,
            "byteOffset" : 5444
        },
        {
            "buffer" : 0,
            "byteLength" : 288,
            "byteOffset" : 5732
        },
        {
            "buffer" : 0,
            "byteLength" : 192,
            "byteOffset" : 6020
        },
        {
            "buffer" : 0,
            "byteLength" : 48,
            "byteOffset" : 6212
        },
        {
            "buffer" : 0,
            "byteLength" : 48,
            "byteOffset" : 6260
        },
        {
            "buffer" : 0,
            "byteLength" : 32,
            "byteOffset" : 6308
        },
        {
            "buffer" : 0,
            "byteLength" : 48,
            "byteOffset" : 6340
        },
        {
            "buffer" : 0,
            "byteLength" : 48,
            "byteOffset" : 6388
        },
        {
            "buffer" : 0,
            "byteLength" : 32,
            "byteOffset" : 6436
        },
        {
            "buffer" : 0,
            "byteLength" : 1824,
            "byteOffset" : 6468
        },
        {
            "buffer" : 0,
            "byteLength" : 1824,
            "byteOffset" : 8292
        },
        {
            "buffer" : 0,
            "byteLength" : 1216,
            "byteOffset" : 10116
        },
        {
            "buffer" : 0,
            "byteLength" : 516,
            "byteOffset" : 11332
        },
        {
            "buffer" : 0,
            "byteLength" : 48,
            "byteOffset" : 11848
        },
        {
            "buffer" : 0,
            "byteLength" : 48,
            "byteOffset" : 11896
        },
        {
            "buffer" : 0,
            "byteLength" : 32,
            "byteOffset" : 11944
        },
        {
            "buffer" : 0,
            "byteLength" : 48,
            "byteOffset" : 11976
        },
        {
            "buffer" : 0,
            "byteLength" : 48,
            "byteOffset" : 12024
        },
        {
            "buffer" : 0,
            "byteLength" : 32,
            "byteOffset" : 12072
        }
    ],
    "buffers" : [
        {
            "byteLength" : 12104,
            "uri" : "data:application/octet-stream;base64,"
        }
    ]
}
